<svg width="32" height="32" viewBox="0 0 64 64" xmlns="http://www.w3.org/2000/svg" fill="none">
  <rect width="64" height="64" rx="8" fill="#E6F4EA"></rect>
  <path d="M20 48h24v-4H20v4zM16 20c0 6.627 5.373 12 12 12 1.155 0 2.27-.163 3.32-.465C30.508 41.034 24 44 24 44s14-2 18-16c0-8-6-12-12-12s-12 4-12 12z" fill="#4CAF50"></path>
  <path d="M32 16c3.314 0 6 2.686 6 6 0 3.314-2.686 6-6 6s-6-2.686-6-6c0-3.314 2.686-6 6-6z" fill="#81C784"></path>
  <path d="M18 52h28a2 2 0 002-2v-4H16v4a2 2 0 002 2z" fill="#A5D6A7"></path>
</svg>
